REM DIRINDEX 1\2\6,1\2\7,1\2\8,1\3\9,1\3\10,1\3\11,1\4\12,1\4\13,1\4\14,1\5\15,1\5\16,1\5\17,1\5\18
REM DIRNAME folder01,folder02,folder03,folder04,folder05,folder06,folder07,folder08,folder09,folder10,folder11,folder12,folder13,folder14,folder15,folder16,folder17,folder18
TITLE ""
FILE "2Q_k_061-070.mp3" MP3
  TRACK 01 AUDIO
    TITLE "9:cjc019_1821"
    INDEX 01 00:00:00
  TRACK 02 AUDIO
    TITLE "0:"
    INDEX 01 00:02:36
  TRACK 03 AUDIO
    TITLE "10:cjc019_1822"
    INDEX 01 00:03:17
  TRACK 04 AUDIO
    TITLE "0:"
    INDEX 01 00:05:10
  TRACK 05 AUDIO
    TITLE "11:cjc019_1823"
    INDEX 01 00:05:63
  TRACK 06 AUDIO
    TITLE "11:cjc019_1824"
    INDEX 01 00:09:10
  TRACK 07 AUDIO
    TITLE "0:"
    INDEX 01 00:13:43
  TRACK 08 AUDIO
    TITLE "9:cjc019_1825"
    INDEX 01 00:14:25
  TRACK 09 AUDIO
    TITLE "0:"
    INDEX 01 00:16:65
  TRACK 10 AUDIO
    TITLE "10:cjc019_1826"
    INDEX 01 00:17:39
  TRACK 11 AUDIO
    TITLE "0:"
    INDEX 01 00:19:58
  TRACK 12 AUDIO
    TITLE "11:cjc019_1827"
    INDEX 01 00:20:39
  TRACK 13 AUDIO
    TITLE "11:cjc019_1828"
    INDEX 01 00:23:71
  TRACK 14 AUDIO
    TITLE "0:"
    INDEX 01 00:27:49
  TRACK 15 AUDIO
    TITLE "9:cjc019_1829"
    INDEX 01 00:28:25
  TRACK 16 AUDIO
    TITLE "0:"
    INDEX 01 00:29:68
  TRACK 17 AUDIO
    TITLE "10:cjc019_1830"
    INDEX 01 00:30:48
  TRACK 18 AUDIO
    TITLE "0:"
    INDEX 01 00:32:13
  TRACK 19 AUDIO
    TITLE "11:cjc019_1831"
    INDEX 01 00:32:68
  TRACK 20 AUDIO
    TITLE "11:cjc019_1832"
    INDEX 01 00:36:58
  TRACK 21 AUDIO
    TITLE "0:"
    INDEX 01 00:44:22
  TRACK 22 AUDIO
    TITLE "9:cjc019_1833"
    INDEX 01 00:44:71
  TRACK 23 AUDIO
    TITLE "0:"
    INDEX 01 00:47:11
  TRACK 24 AUDIO
    TITLE "10:cjc019_1834"
    INDEX 01 00:47:58
  TRACK 25 AUDIO
    TITLE "0:"
    INDEX 01 00:50:33
  TRACK 26 AUDIO
    TITLE "11:cjc019_1835"
    INDEX 01 00:51:11
  TRACK 27 AUDIO
    TITLE "11:cjc019_1836"
    INDEX 01 00:54:54
  TRACK 28 AUDIO
    TITLE "0:"
    INDEX 01 00:57:64
  TRACK 29 AUDIO
    TITLE "9:cjc019_1837"
    INDEX 01 00:58:42
  TRACK 30 AUDIO
    TITLE "0:"
    INDEX 01 01:00:04
  TRACK 31 AUDIO
    TITLE "10:cjc019_1838"
    INDEX 01 01:00:49
  TRACK 32 AUDIO
    TITLE "0:"
    INDEX 01 01:02:14
  TRACK 33 AUDIO
    TITLE "11:cjc019_1839"
    INDEX 01 01:02:65
  TRACK 34 AUDIO
    TITLE "11:cjc019_1840"
    INDEX 01 01:06:26
  TRACK 35 AUDIO
    TITLE "0:"
    INDEX 01 01:12:28
  TRACK 36 AUDIO
    TITLE "9:cjc019_1841"
    INDEX 01 01:13:08
  TRACK 37 AUDIO
    TITLE "0:"
    INDEX 01 01:15:29
  TRACK 38 AUDIO
    TITLE "10:cjc019_1842"
    INDEX 01 01:16:07
  TRACK 39 AUDIO
    TITLE "0:"
    INDEX 01 01:17:32
  TRACK 40 AUDIO
    TITLE "11:cjc019_1843"
    INDEX 01 01:18:06
  TRACK 41 AUDIO
    TITLE "11:cjc019_1844"
    INDEX 01 01:21:29
  TRACK 42 AUDIO
    TITLE "0:"
    INDEX 01 01:27:57
  TRACK 43 AUDIO
    TITLE "9:cjc019_1845"
    INDEX 01 01:28:37
  TRACK 44 AUDIO
    TITLE "0:"
    INDEX 01 01:30:13
  TRACK 45 AUDIO
    TITLE "10:cjc019_1846"
    INDEX 01 01:30:73
  TRACK 46 AUDIO
    TITLE "0:"
    INDEX 01 01:34:22
  TRACK 47 AUDIO
    TITLE "11:cjc019_1847"
    INDEX 01 01:35:08
  TRACK 48 AUDIO
    TITLE "11:cjc019_1848"
    INDEX 01 01:37:62
  TRACK 49 AUDIO
    TITLE "0:"
    INDEX 01 01:39:23
  TRACK 50 AUDIO
    TITLE "9:cjc019_1849"
    INDEX 01 01:39:74
  TRACK 51 AUDIO
    TITLE "0:"
    INDEX 01 01:41:59
  TRACK 52 AUDIO
    TITLE "10:cjc019_1850"
    INDEX 01 01:42:33
  TRACK 53 AUDIO
    TITLE "0:"
    INDEX 01 01:43:68
  TRACK 54 AUDIO
    TITLE "11:cjc019_1851"
    INDEX 01 01:44:48
  TRACK 55 AUDIO
    TITLE "11:cjc019_1852"
    INDEX 01 01:46:53
  TRACK 56 AUDIO
    TITLE "0:"
    INDEX 01 01:49:14
  TRACK 57 AUDIO
    TITLE "9:cjc019_1853"
    INDEX 01 01:49:69
  TRACK 58 AUDIO
    TITLE "0:"
    INDEX 01 01:51:40
  TRACK 59 AUDIO
    TITLE "10:cjc019_1854"
    INDEX 01 01:52:14
  TRACK 60 AUDIO
    TITLE "0:"
    INDEX 01 01:53:37
  TRACK 61 AUDIO
    TITLE "11:cjc019_1855"
    INDEX 01 01:54:21
  TRACK 62 AUDIO
    TITLE "11:cjc019_1856"
    INDEX 01 01:55:54
  TRACK 63 AUDIO
    TITLE "11:cjc019_1857"
    INDEX 01 01:57:06
  TRACK 64 AUDIO
    TITLE "0:"
    INDEX 01 01:58:72
  TRACK 65 AUDIO
    TITLE "9:cjc019_1858"
    INDEX 01 01:59:50
  TRACK 66 AUDIO
    TITLE "0:"
    INDEX 01 02:02:01
  TRACK 67 AUDIO
    TITLE "10:cjc019_1859"
    INDEX 01 02:02:54
  TRACK 68 AUDIO
    TITLE "0:"
    INDEX 01 02:04:43
  TRACK 69 AUDIO
    TITLE "11:cjc019_1860"
    INDEX 01 02:05:17
  TRACK 70 AUDIO
    TITLE "11:cjc019_1861"
    INDEX 01 02:09:32
  TRACK 71 AUDIO
    TITLE "0:"
    INDEX 01 02:14:00
